<?xml version="1.0" encoding="utf-8"?>
<svg version="1.1" id="loop-brand" xmlns="http://www.w3.org/2000/svg" xmlns:xlink="http://www.w3.org/1999/xlink" x="0px" y="0px"
	 viewBox="0 0 630.8 343.3" style="enable-background:new 0 0 630.8 343.3;" xml:space="preserve">
<g>
	<path fill="white" d="M533.3,304.8c-19.1,7.4-48.6,5.3-83.9-6c-1.1,14.7-2.1,29.2-3.2,44c-22.7,0-45.2,0-68.1,0
		c1-14.8,2-29.5,3.1-44.5c-8.3,2.5-15.9,5.5-23.7,7.2c-34.6,7.5-67.6,4.4-97.2-16.6c-23.4-16.6-36.1-40.3-41.7-67.9
		c-2.5-12.5-3.4-25.2-2.4-38.1c1.5-19.7-2.3-38.4-14.7-54.5c-16.2-21.1-48-22.9-68.6-3.9c-29.1,26.7-37.1,76.9-9.1,110.1
		c9.6,11.3,22.9,15.4,37.6,14c18.3-1.8,30.9-12.2,40.7-26.9c0.8-1.2,1.7-2.3,2.4-3.3c3.7,10.8,6.5,21.8,11.1,32
		c4.6,10.4,10.9,20,16.7,30.4c-8.7,7.8-19.3,14-30.8,18.4c-30.3,11.8-61.1,13.1-91.7,1.8c-28.4-10.5-48-30.6-59.4-58.6
		c-20.1-49.4-7.9-121.1,35.7-159.9c12-10.6,25.3-18.9,40.4-24.1c1.8-0.6,4.6-0.3,6.3,0.7c33.2,20.3,66.2,40.8,99.3,61.2
		c14.2,8.8,28.3,17.8,42.7,26.2c4.5,2.6,6.2,6,6.2,10.7c0,8.8,0.2,17.7,0,26.5c-0.4,13.4,2.5,26,8.6,37.9c18.3,35.6,59.3,32.3,79,9
		c4.8-5.7,8.9-12,13.7-18.5C432.2,242.9,482.4,273.7,533.3,304.8z"/>
	<path fill="white" d="M380.5,202c7.9-15.1,10.8-30.6,9.5-46.9c-1.5-18.5-7.5-35.4-22.5-47.2c-17.3-13.6-44.8-11.2-60.7,4.4
		c-5.1,5-9.6,10.7-14.1,15.8c-3.5-10.4-6.2-21.2-10.7-31.3c-4.5-10.2-10.8-19.7-16.5-30c8.8-7.4,18.9-13.6,30.1-17.9
		c34.7-13.4,69.3-13.7,102.9,3.2c28.1,14.1,44.6,37.8,52.8,67.7c4.7,16.9,5.1,34.1,4.1,51.5c-1,16.1,3.2,30.9,12.1,44.4
		c16.9,26,48.9,25.4,67.2,10.3c18.4-15.1,27.8-35.1,29.2-58.9c0.9-14.6-1.9-28.3-8.6-41.4c-16.7-33-56.2-32.2-76.3-10.7
		c-4.6,5-8.6,10.5-13.2,16.3c-4.1-23.3-13.1-44.4-27.6-63.1c21.3-17.6,45.5-27,72.6-28.5c25.6-1.5,49.7,3.1,71.4,17.4
		c23.9,15.7,38.4,38.4,44.1,65.8c9.7,46.5,2,89.8-27.4,128.1c-16.6,21.7-38.8,35.5-65.2,42.2c-2.3,0.6-5.6,0.1-7.7-1.2
		c-43.3-26.6-86.6-53.3-129.8-80.1C391.2,208.7,386.1,205.5,380.5,202z"/>
	<path fill="white" d="M67.7,308.6c-22.4,0-44.4,0-67.1,0c6.9-98.8,13.7-197.4,20.6-296.9c6.3,0,12.4,0.5,18.5-0.1
		c11-1.1,20.5,1.5,29.3,8.2c4.9,3.7,10.6,6.3,15.6,9.9c1.5,1.1,3,3.6,2.9,5.4C87,45,86.3,54.8,85.3,64.5c-0.2,2.1-2,4.5-3.7,6.1
		c-24.1,23-40.5,50.5-47.5,83.1c-8.2,38.4-5.8,75.8,14.3,110.5c5.1,8.8,12.1,16.6,18.1,24.9c1.2,1.6,2.3,3.7,2.3,5.6
		C68.8,299.2,68.1,303.6,67.7,308.6z"/>
	<path fill="white" d="M128.5,45.4c40-10.8,78.6-9.7,112.7,17.4c24,19.1,35.1,45.5,38.9,75.2c-0.4,0.3-0.8,0.7-1.1,1
		c-50.3-30.7-100.6-61.4-150.9-92.2C128.3,46.4,128.4,45.9,128.5,45.4z"/>
	<path fill="white" d="M52.1,0C65.2,0,76.9,0,89,0c-0.5,7.1-0.9,13.9-1.5,21.7C75.7,14.4,64.4,7.5,52.1,0z"/>
</g>
</svg>